#define c3a6f4f588e94076d0f9ab1ce04c0ea7_width 180
#define c3a6f4f588e94076d0f9ab1ce04c0ea7_height 90
static char c3a6f4f588e94076d0f9ab1ce04c0ea7_bits[] = {
  0x00, 0x00, 0x00, 0x00, 0x00, 0x00, 0x00, 0x00, 0x00, 0x00, 0x00, 0x00, 
  0x00, 0x00, 0x00, 0x00, 0x00, 0x00, 0x00, 0x00, 0x00, 0x00, 0x00, 0x00, 
  0x00, 0x00, 0x00, 0x00, 0x00, 0x00, 0x00, 0x00, 0x00, 0x00, 0x00, 0x00, 
  0x00, 0x00, 0x00, 0x00, 0x00, 0x00, 0x00, 0x00, 0x00, 0x00, 0x00, 0x00, 
  0x00, 0x00, 0x00, 0x00, 0x00, 0x00, 0x00, 0x00, 0x00, 0x00, 0x00, 0x00, 
  0x00, 0x00, 0x00, 0x00, 0x00, 0x00, 0x00, 0x00, 0x00, 0x00, 0x00, 0x00, 
  0x00, 0x00, 0x00, 0x00, 0x00, 0x00, 0x00, 0x00, 0x00, 0x00, 0x00, 0x00, 
  0x00, 0x00, 0x00, 0x00, 0x00, 0x00, 0x00, 0x00, 0x00, 0x00, 0x00, 0x00, 
  0x00, 0x00, 0x00, 0x00, 0x00, 0x00, 0x00, 0x00, 0x00, 0x00, 0x00, 0x00, 
  0x00, 0x00, 0x00, 0x00, 0x00, 0x00, 0x00, 0x00, 0x00, 0x00, 0x00, 0x00, 
  0x00, 0x00, 0x00, 0x00, 0x00, 0x00, 0x00, 0x00, 0x00, 0x00, 0x00, 0x00, 
  0x00, 0x00, 0x00, 0x00, 0x00, 0x00, 0x00, 0x00, 0x00, 0x00, 0x00, 0x00, 
  0x00, 0x00, 0x00, 0x00, 0x00, 0x00, 0x00, 0x00, 0x00, 0x00, 0x00, 0x00, 
  0x00, 0x00, 0x00, 0x00, 0x00, 0x00, 0x00, 0x00, 0x00, 0x00, 0x00, 0x00, 
  0x00, 0x00, 0x00, 0x00, 0x00, 0x00, 0x00, 0x00, 0x00, 0x00, 0x00, 0x00, 
  0x00, 0x00, 0x00, 0x00, 0x00, 0x00, 0x00, 0x00, 0x00, 0x00, 0x00, 0x00, 
  0x00, 0x00, 0x00, 0x00, 0x00, 0x00, 0x00, 0x00, 0x00, 0x00, 0x00, 0x00, 
  0x00, 0x00, 0x00, 0x00, 0x00, 0x00, 0x00, 0x00, 0x00, 0x00, 0x00, 0x00, 
  0x00, 0x00, 0x00, 0x00, 0xF8, 0x07, 0x00, 0x00, 0x00, 0x00, 0x00, 0x00, 
  0x00, 0x00, 0x00, 0x00, 0x00, 0x00, 0x00, 0x00, 0x00, 0x00, 0x00, 0x00, 
  0x00, 0x00, 0x00, 0xFF, 0x3F, 0x00, 0x00, 0x00, 0x00, 0x00, 0x00, 0x00, 
  0x00, 0x00, 0x00, 0x00, 0x00, 0x00, 0x00, 0x00, 0x00, 0x00, 0x00, 0x00, 
  0x00, 0xC0, 0x0F, 0xFE, 0x00, 0x00, 0xF8, 0x00, 0x00, 0x00, 0x00, 0x00, 
  0x00, 0x00, 0x00, 0x00, 0x00, 0x00, 0x00, 0x00, 0x00, 0x00, 0x00, 0x00, 
  0xE0, 0xF1, 0xC0, 0x03, 0x00, 0xFE, 0x01, 0x00, 0x00, 0x00, 0x00, 0x00, 
  0x00, 0x00, 0x00, 0x00, 0x00, 0x00, 0x00, 0x00, 0x00, 0x00, 0x00, 0x70, 
  0xFF, 0x1F, 0x07, 0x00, 0x8F, 0x01, 0x3C, 0x00, 0x00, 0x00, 0x00, 0x00, 
  0x00, 0x00, 0x00, 0x00, 0x00, 0x00, 0x00, 0x00, 0x00, 0x00, 0xF8, 0xFF, 
  0x7F, 0x0E, 0x80, 0xB3, 0x03, 0x7F, 0x00, 0x00, 0x00, 0x00, 0x00, 0x00, 
  0x00, 0x00, 0x00, 0x00, 0x00, 0x00, 0x00, 0x00, 0x00, 0xFC, 0xFF, 0xFF, 
  0x0D, 0x80, 0x7F, 0xF3, 0x67, 0x00, 0x00, 0x00, 0x00, 0x00, 0x00, 0x00, 
  0x00, 0x00, 0x00, 0x00, 0x00, 0x00, 0x00, 0x00, 0xFE, 0xFF, 0xFF, 0x0F, 
  0x80, 0x7F, 0xFF, 0x65, 0x00, 0x00, 0x00, 0x00, 0x00, 0x00, 0x00, 0x00, 
  0x00, 0x00, 0x00, 0x00, 0x00, 0x00, 0x00, 0xFF, 0xFF, 0xFF, 0x07, 0xC0, 
  0xFF, 0x1F, 0x6F, 0x00, 0x00, 0x00, 0x00, 0x00, 0x00, 0x00, 0x00, 0x00, 
  0x00, 0x00, 0x00, 0x00, 0x00, 0x00, 0xFF, 0xFF, 0xFF, 0x07, 0xC0, 0xFF, 
  0xF7, 0x6F, 0x00, 0x00, 0x00, 0x00, 0x00, 0x00, 0x00, 0x00, 0x00, 0x00, 
  0x00, 0x00, 0x00, 0x3E, 0x80, 0xFF, 0xFF, 0xFF, 0x03, 0xC0, 0x7F, 0xFE, 
  0x7F, 0x00, 0x00, 0x00, 0x00, 0x00, 0x00, 0x00, 0x00, 0x00, 0x00, 0x00, 
  0x00, 0x00, 0xFE, 0x81, 0xFF, 0xFF, 0xFF, 0x03, 0xC0, 0xFF, 0xFE, 0x7F, 
  0x00, 0x00, 0x00, 0x00, 0x00, 0x00, 0x00, 0x00, 0x00, 0x00, 0x00, 0x00, 
  0x00, 0xC6, 0xDF, 0xFF, 0xFF, 0xFF, 0x03, 0xC0, 0xFF, 0xFF, 0x7F, 0x00, 
  0x00, 0x00, 0x00, 0x00, 0x00, 0x00, 0x00, 0x00, 0x00, 0x00, 0x00, 0x00, 
  0x1F, 0xFE, 0xFF, 0xFF, 0xFF, 0x01, 0xC0, 0xFF, 0xFD, 0x3F, 0x00, 0x00, 
  0x00, 0x00, 0x00, 0x00, 0x00, 0x00, 0x00, 0x00, 0x00, 0x00, 0x00, 0xFF, 
  0xF0, 0xFF, 0xFF, 0xFF, 0x01, 0xC0, 0xFF, 0xFF, 0x0F, 0x00, 0x00, 0x00, 
  0x00, 0x00, 0x00, 0x00, 0x00, 0x00, 0x00, 0x00, 0x1C, 0x00, 0xFF, 0x87, 
  0xFF, 0xFF, 0xFF, 0x00, 0xC0, 0xFF, 0xFF, 0x1D, 0x00, 0x00, 0x00, 0x00, 
  0x00, 0x00, 0x00, 0x00, 0x00, 0x00, 0x00, 0x3E, 0x80, 0xFF, 0xFF, 0xFF, 
  0xFF, 0xFF, 0x00, 0xC0, 0x7F, 0xFF, 0x19, 0x00, 0x00, 0x00, 0x00, 0x00, 
  0x00, 0x00, 0x00, 0x00, 0x00, 0x00, 0x77, 0x80, 0xFF, 0xFF, 0xFF, 0xFF, 
  0xFF, 0x00, 0xC0, 0x7F, 0xFE, 0x19, 0x00, 0x00, 0x00, 0x00, 0x00, 0x00, 
  0x00, 0x00, 0x00, 0x00, 0x00, 0xEB, 0x81, 0xFF, 0xFF, 0xFF, 0x3F, 0x70, 
  0x00, 0x80, 0x3F, 0xFE, 0x18, 0x00, 0x00, 0x00, 0x00, 0x00, 0x00, 0x00, 
  0x00, 0x00, 0x00, 0x80, 0x9F, 0xC3, 0xFF, 0xFF, 0xFF, 0x3F, 0x00, 0x00, 
  0x00, 0x3E, 0xFE, 0x30, 0x00, 0x00, 0x00, 0x00, 0x00, 0x00, 0x00, 0x00, 
  0x00, 0x00, 0xC0, 0x3F, 0xC7, 0xFF, 0xFF, 0xFF, 0x1F, 0xC0, 0x03, 0x00, 
  0x1E, 0xFC, 0x30, 0x00, 0x00, 0x00, 0x00, 0x00, 0x00, 0x00, 0x80, 0x07, 
  0x00, 0xE0, 0x7F, 0xCE, 0xFF, 0xFF, 0xFF, 0x1F, 0xE0, 0x0F, 0x00, 0x1E, 
  0xFC, 0x30, 0x00, 0x00, 0x00, 0x00, 0x00, 0x00, 0x00, 0x80, 0x0F, 0x00, 
  0xE0, 0xFF, 0xFC, 0xFF, 0xFF, 0xFF, 0x1F, 0x60, 0x3E, 0x00, 0x1C, 0xF8, 
  0x61, 0x00, 0x00, 0x00, 0x00, 0x00, 0x00, 0x00, 0x80, 0x1D, 0x00, 0xF0, 
  0xFF, 0xFB, 0xFF, 0xFF, 0xFF, 0x1F, 0xF0, 0x79, 0x00, 0x3C, 0xF8, 0x7F, 
  0x00, 0x00, 0x00, 0x00, 0x00, 0x00, 0x00, 0xC0, 0x39, 0x00, 0xF8, 0xFF, 
  0xE7, 0xFF, 0xFF, 0xFF, 0x3F, 0xF8, 0xE3, 0xC1, 0x3F, 0xF8, 0x7F, 0x00, 
  0x00, 0x00, 0x00, 0x00, 0x00, 0x00, 0xC0, 0xF7, 0x00, 0xF8, 0xFF, 0xCF, 
  0xFF, 0xFF, 0xFF, 0x77, 0xFC, 0x8F, 0xFF, 0xFF, 0xFC, 0x8F, 0x01, 0x00, 
  0x00, 0x00, 0x00, 0x00, 0x00, 0xC0, 0xC7, 0x01, 0xF8, 0xFF, 0xFF, 0xFF, 
  0xFF, 0xFF, 0xE7, 0xEF, 0x3F, 0x7F, 0xFE, 0xFF, 0x01, 0x03, 0x00, 0x00, 
  0x00, 0x00, 0x00, 0x00, 0xC0, 0x9F, 0x03, 0xF8, 0xFF, 0xFF, 0xFF, 0xFF, 
  0xFF, 0xCF, 0xF7, 0x7F, 0x7C, 0xFE, 0x6F, 0x00, 0x03, 0x00, 0x00, 0x00, 
  0x00, 0x00, 0x00, 0xC0, 0x3F, 0x07, 0xF0, 0xFF, 0xFF, 0xFF, 0xFF, 0xFF, 
  0x1F, 0xF9, 0xFF, 0xFD, 0xF6, 0xC1, 0x01, 0x06, 0x00, 0x00, 0x00, 0x00, 
  0x00, 0x0F, 0xE0, 0x7F, 0x1E, 0xE0, 0xFF, 0xFF, 0xFF, 0xFF, 0xFF, 0x3F, 
  0xFE, 0xFF, 0xFD, 0x7F, 0x00, 0x03, 0x06, 0x00, 0x00, 0x00, 0x00, 0xC0, 
  0x1F, 0xE0, 0xFF, 0x38, 0xC0, 0xFF, 0xFF, 0xFF, 0xCF, 0xFF, 0xFF, 0xFF, 
  0xFF, 0xCF, 0x0F, 0x00, 0x0E, 0x0C, 0x00, 0x00, 0x00, 0x00, 0xF8, 0x19, 
  0xE0, 0xFF, 0x71, 0x80, 0xFF, 0xFF, 0xFF, 0xCF, 0xFF, 0xFF, 0xFF, 0xFF, 
  0x0F, 0x06, 0x00, 0x38, 0x0C, 0x00, 0x00, 0x00, 0x00, 0x3E, 0x18, 0xE0, 
  0xFF, 0xE3, 0x00, 0xFE, 0xFF, 0xFF, 0xCF, 0xFF, 0xFF, 0xFF, 0xFF, 0x07, 
  0x02, 0x00, 0x30, 0x08, 0x00, 0x00, 0x00, 0xC0, 0x8F, 0x3B, 0xE0, 0xFF, 
  0xC7, 0x01, 0xFC, 0xFF, 0xFF, 0x86, 0xFF, 0xFF, 0xFF, 0xFF, 0x03, 0x03, 
  0x00, 0x70, 0x18, 0x00, 0x00, 0x00, 0xF0, 0xE1, 0x33, 0xF0, 0xFF, 0x8F, 
  0x07, 0xF0, 0xFF, 0xFF, 0x87, 0xFF, 0xFF, 0xFF, 0xFF, 0x01, 0x03, 0x00, 
  0xF0, 0x19, 0x00, 0x00, 0x00, 0x7E, 0xF8, 0x33, 0xF0, 0xFF, 0x3F, 0x0E, 
  0xE0, 0xFF, 0x7F, 0x03, 0xFF, 0xFF, 0xFF, 0xFF, 0x03, 0x03, 0x00, 0xE0, 
  0x31, 0x00, 0x00, 0x80, 0x0F, 0xFF, 0x37, 0xF0, 0xFF, 0x7F, 0x1C, 0xC0, 
  0xFF, 0x7F, 0x03, 0xFE, 0xFF, 0xFF, 0xFF, 0x07, 0x03, 0x07, 0xC0, 0x35, 
  0x00, 0x00, 0xF0, 0xC3, 0xFF, 0x37, 0xF0, 0xFF, 0xFF, 0x38, 0x00, 0xFF, 
  0x7F, 0x03, 0xFC, 0xFF, 0xFF, 0x3F, 0x0E, 0x83, 0x0F, 0xC0, 0x37, 0x00, 
  0x00, 0x78, 0xE0, 0xFF, 0x77, 0xF0, 0xFF, 0xFF, 0xF1, 0x00, 0xFE, 0x7F, 
  0x06, 0xF8, 0xFF, 0xFF, 0x1F, 0x18, 0x86, 0x0F, 0x80, 0x6B, 0x00, 0x00, 
  0x1C, 0xF8, 0xFF, 0x67, 0xF8, 0xFF, 0xFF, 0xC1, 0x01, 0xFC, 0x3F, 0x06, 
  0xF0, 0xFF, 0xFF, 0x0F, 0x10, 0x86, 0x1F, 0x80, 0x6F, 0x00, 0x00, 0x7C, 
  0xFE, 0xFF, 0x67, 0xF8, 0xFF, 0xFF, 0x83, 0x03, 0xFC, 0x3F, 0x06, 0xE0, 
  0xFF, 0x9F, 0x03, 0x30, 0x86, 0x3F, 0x00, 0xFF, 0x00, 0x00, 0xF8, 0xFF, 
  0xFF, 0x6F, 0xF8, 0xFF, 0xFF, 0x03, 0x07, 0xF8, 0x3F, 0x0C, 0x80, 0xFF, 
  0x8F, 0x01, 0x20, 0x8C, 0x3F, 0x00, 0xDF, 0x00, 0x00, 0xF8, 0x01, 0xFC, 
  0x7F, 0xF8, 0x80, 0x1F, 0x00, 0x1E, 0xF8, 0x01, 0x0C, 0x00, 0xFC, 0xCF, 
  0x01, 0x20, 0x8E, 0x7F, 0x00, 0xFE, 0x00, 0x00, 0xF8, 0x00, 0xFC, 0x7F, 
  0x78, 0x80, 0x1F, 0x00, 0x38, 0xF8, 0x01, 0x0C, 0x00, 0xF0, 0xDF, 0x01, 
  0xC0, 0x8F, 0x7F, 0x00, 0xEE, 0x00, 0x00, 0xF0, 0x00, 0xFC, 0x1F, 0x7C, 
  0x80, 0x1F, 0x00, 0x70, 0xF0, 0x01, 0x1C, 0x00, 0xF8, 0xDF, 0x71, 0xC0, 
  0x1F, 0x7F, 0x00, 0xFC, 0x00, 0x00, 0xF0, 0x01, 0xF8, 0x3F, 0x3C, 0x80, 
  0x0F, 0x00, 0xE0, 0xF0, 0x01, 0x18, 0x00, 0xD8, 0xFF, 0xF9, 0xC0, 0x19, 
  0x7F, 0x00, 0xFC, 0x00, 0x00, 0xF0, 0x01, 0xF8, 0x33, 0x1C, 0x80, 0x07, 
  0x00, 0xC0, 0xF1, 0x01, 0x18, 0x00, 0xC8, 0xFF, 0xF8, 0x81, 0x30, 0x7F, 
  0x00, 0xFC, 0x00, 0x00, 0xE0, 0x01, 0xF8, 0x60, 0x0C, 0x80, 0x01, 0x00, 
  0x80, 0xE3, 0xC1, 0x19, 0x00, 0x08, 0x7F, 0xF8, 0x83, 0x30, 0x7E, 0x00, 
  0xFC, 0x00, 0x00, 0xE0, 0x01, 0x18, 0x60, 0x0C, 0x00, 0x00, 0x00, 0x00, 
  0xE3, 0xFF, 0x1F, 0x00, 0x08, 0x08, 0xF8, 0x83, 0x31, 0x7C, 0x00, 0xFC, 
  0x00, 0x00, 0xE0, 0x01, 0x00, 0xE0, 0x0E, 0x00, 0x00, 0x00, 0x80, 0xE3, 
  0xFF, 0x1F, 0x00, 0x18, 0x00, 0xF8, 0x07, 0x61, 0x78, 0x80, 0xFF, 0x01, 
  0x00, 0xC0, 0x01, 0x00, 0xC0, 0x0E, 0x00, 0x00, 0x00, 0xE0, 0xC1, 0xFF, 
  0x0F, 0x00, 0x18, 0x00, 0xF8, 0x07, 0xE1, 0x00, 0xE0, 0xF9, 0x01, 0x00, 
  0xC0, 0x03, 0x00, 0xC0, 0x0E, 0x00, 0x00, 0x00, 0xF0, 0xC0, 0x7F, 0x00, 
  0x00, 0x10, 0x08, 0xF0, 0x07, 0xC2, 0x01, 0x7C, 0xF8, 0x01, 0x00, 0xC0, 
  0x03, 0x00, 0x80, 0x07, 0x00, 0xF0, 0x03, 0x78, 0x00, 0x03, 0x00, 0x00, 
  0x30, 0x08, 0xF0, 0x0F, 0x82, 0x03, 0x0F, 0xF8, 0x01, 0x00, 0xC0, 0x03, 
  0x00, 0x80, 0x07, 0x00, 0xFC, 0x07, 0x1C, 0x00, 0x00, 0x00, 0x00, 0x30, 
  0x08, 0xF0, 0x0F, 0x06, 0xFF, 0x03, 0xF8, 0x01, 0x00, 0x80, 0x03, 0x00, 
  0x80, 0x07, 0x00, 0xFF, 0x0F, 0x0F, 0x00, 0x00, 0x00, 0x00, 0x60, 0x08, 
  0xE0, 0x0F, 0x06, 0x7E, 0x00, 0xFC, 0x00, 0x00, 0x80, 0x07, 0x00, 0xFC, 
  0x07, 0x80, 0xBF, 0xBF, 0x07, 0x00, 0x00, 0x00, 0x00, 0x60, 0x08, 0xE0, 
  0x0F, 0x06, 0x00, 0x00, 0xFC, 0x00, 0x00, 0x80, 0x07, 0x00, 0xFF, 0x07, 
  0x80, 0x07, 0xFE, 0x03, 0x00, 0x00, 0x00, 0x00, 0x40, 0x10, 0x80, 0x0F, 
  0x06, 0x00, 0x00, 0xFC, 0x00, 0x00, 0x00, 0x07, 0x80, 0x3F, 0x03, 0x80, 
  0x01, 0xFC, 0x00, 0x00, 0x00, 0x00, 0x00, 0xC0, 0x10, 0x00, 0x07, 0x03, 
  0x00, 0x00, 0xFC, 0x00, 0x00, 0x00, 0x0F, 0x80, 0x07, 0x03, 0x80, 0x01, 
  0x78, 0x00, 0x00, 0x00, 0x00, 0x00, 0xC0, 0x10, 0x00, 0x80, 0x01, 0x00, 
  0x00, 0xFC, 0x00, 0x00, 0x00, 0x0F, 0x80, 0x01, 0x03, 0x80, 0x01, 0x10, 
  0x00, 0x00, 0x00, 0x00, 0x00, 0x80, 0x10, 0x00, 0xC0, 0x01, 0x00, 0x00, 
  0x7E, 0x00, 0x00, 0x00, 0x0E, 0x80, 0x81, 0x03, 0x80, 0x01, 0x00, 0x00, 
  0x00, 0x00, 0x00, 0x00, 0x80, 0x21, 0x00, 0xF0, 0x00, 0x00, 0x00, 0x7E, 
  0x00, 0x00, 0x00, 0x1E, 0x00, 0x83, 0xFF, 0x9F, 0x01, 0x00, 0x00, 0x00, 
  0x00, 0x00, 0x00, 0x80, 0x21, 0x00, 0x3C, 0x00, 0x00, 0x00, 0x7F, 0x00, 
  0x00, 0x00, 0x1E, 0x00, 0x83, 0xFF, 0xBF, 0x01, 0x00, 0x00, 0x00, 0x00, 
  0x00, 0x00, 0x00, 0x43, 0x80, 0x07, 0x00, 0x00, 0x00, 0x3F, 0x00, 0x00, 
  0x00, 0x1C, 0x00, 0x83, 0xFF, 0xFF, 0x01, 0x00, 0x00, 0x00, 0x00, 0x00, 
  0x00, 0x00, 0xC6, 0xE0, 0x01, 0x00, 0x80, 0x01, 0x3F, 0x00, 0x00, 0x00, 
  0x3C, 0x00, 0x07, 0xFF, 0xFF, 0x00, 0x00, 0x00, 0x00, 0x00, 0x00, 0x00, 
  0x00, 0x8C, 0x3C, 0x00, 0x00, 0xC0, 0x80, 0x1F, 0x00, 0x00, 0x00, 0x3C, 
  0x00, 0x06, 0x00, 0x00, 0x00, 0x00, 0x00, 0x00, 0x00, 0x00, 0x00, 0x00, 
  0xF8, 0x0F, 0x00, 0x00, 0xF0, 0xC0, 0x1F, 0x00, 0x00, 0x00, 0x38, 0x00, 
  0x06, 0x00, 0x00, 0x00, 0x00, 0x00, 0x00, 0x00, 0x00, 0x00, 0x00, 0xE0, 
  0x03, 0x00, 0x00, 0x7C, 0xC0, 0x0F, 0x00, 0x00, 0x00, 0x78, 0x00, 0x06, 
  0x00, 0x00, 0x00, 0x00, 0x00, 0x00, 0x00, 0x00, 0x00, 0x00, 0x00, 0x02, 
  0x00, 0x00, 0x0E, 0xE0, 0x07, 0x00, 0x00, 0x00, 0x78, 0x00, 0x0E, 0x00, 
  0x00, 0x00, 0x00, 0x00, 0x00, 0x00, 0x00, 0x00, 0x00, 0x00, 0x04, 0x00, 
  0x80, 0x03, 0xF0, 0x03, 0x00, 0x00, 0x00, 0x70, 0xF0, 0x07, 0x00, 0x00, 
  0x00, 0x00, 0x00, 0x00, 0x00, 0x00, 0x00, 0x00, 0x00, 0x08, 0x00, 0x00, 
  0x00, 0xF8, 0x01, 0x00, 0x00, 0x00, 0xF0, 0xFF, 0x07, 0x00, 0x00, 0x00, 
  0x00, 0x00, 0x00, 0x00, 0x00, 0x00, 0x00, 0x00, 0x18, 0x00, 0x00, 0x00, 
  0xFC, 0x00, 0x00, 0x00, 0x00, 0xF0, 0xFF, 0x01, 0x00, 0x00, 0x00, 0x00, 
  0x00, 0x00, 0x00, 0x00, 0x00, 0x00, 0x00, 0x60, 0x00, 0x00, 0x00, 0x7E, 
  0x00, 0x00, 0x00, 0x00, 0xE0, 0x3F, 0x00, 0x00, 0x00, 0x00, 0x00, 0x00, 
  0x00, 0x00, 0x00, 0x00, 0x00, 0x00, 0x80, 0x00, 0x00, 0x00, 0x0F, 0x00, 
  0x00, 0x00, 0x00, 0xE0, 0x07, 0x00, 0x00, 0x00, 0x00, 0x00, 0x00, 0x00, 
  0x00, 0x00, 0x00, 0x00, 0x00, 0x00, 0x03, 0x00, 0x80, 0x07, 0x00, 0x00, 
  0x00, 0x00, 0x80, 0x00, 0x00, 0x00, 0x00, 0x00, 0x00, 0x00, 0x00, 0x00, 
  0x00, 0x00, 0x00, 0x00, 0x00, 0x0C, 0x00, 0xC0, 0x03, 0x00, 0x00, 0x00, 
  0x00, 0x00, 0x00, 0x00, 0x00, 0x00, 0x00, 0x00, 0x00, 0x00, 0x00, 0x00, 
  0x00, 0x00, 0x00, 0x00, 0x70, 0x00, 0x78, 0x00, 0x00, 0x00, 0x00, 0x00, 
  0x00, 0x00, 0x00, 0x00, 0x00, 0x00, 0x00, 0x00, 0x00, 0x00, 0x00, 0x00, 
  0x00, 0x00, 0x00, 0x80, 0xEF, 0x1F, 0x00, 0x00, 0x00, 0x00, 0x00, 0x00, 
  0x00, 0x00, 0x00, 0x00, 0x00, 0x00, 0x00, 0x00, 0x00, 0x00, 0x00, 0x00, 
  0x00, 0x00, 0x00, 0x30, 0x00, 0x00, 0x00, 0x00, 0x00, 0x00, 0x00, 0x00, 
  0x00, 0x00, 0x00, 0x00, 0x00, 0x00, 0x00, 0x00, 0x00, 0x00, 0x00, 0x00, 
  0x00, 0x00, 0x00, 0x00, 0x00, 0x00, 0x00, 0x00, 0x00, 0x00, 0x00, 0x00, 
  0x00, 0x00, 0x00, 0x00, 0x00, 0x00, 0x00, 0x00, 0x00, 0x00, 0x00, 0x00, 
  0x00, 0x00, 0x00, 0x00, 0x00, 0x00, 0x00, 0x00, 0x00, 0x00, 0x00, 0x00, 
  0x00, 0x00, 0x00, 0x00, 0x00, 0x00, 0x00, 0x00, 0x00, 0x00, 0x00, 0x00, 
  0x00, 0x00, 0x00, 0x00, 0x00, 0x00, };
